<?xml version="1.0" encoding="iso-8859-1"?>
<!-- Generator: Adobe Illustrator 19.0.0, SVG Export Plug-In . SVG Version: 6.00 Build 0)  -->
<svg version="1.1" id="Capa_1" xmlns="http://www.w3.org/2000/svg" xmlns:xlink="http://www.w3.org/1999/xlink" x="0px" y="0px"
	 viewBox="0 0 511.999 511.999" style="enable-background:new 0 0 511.999 511.999;" xml:space="preserve">
<path style="fill:#56ACE1;" d="M79.643,183.871c0-97.399,78.957-176.356,176.356-176.356s176.356,78.957,176.356,176.356
	c0,136.275-176.356,320.647-176.356,320.647S79.643,320.146,79.643,183.871z"/>
<path style="fill:#3A9FDE;" d="M111.708,175.855c0-76.819,49.122-142.155,117.664-166.34
	C144.608,22.352,79.643,95.524,79.643,183.871c0,136.275,176.356,320.647,176.356,320.647s7.57-7.916,19.567-21.67
	C235.326,437.757,111.708,289.95,111.708,175.855z"/>
<circle style="fill:#A1DBFF;" cx="255.996" cy="183.871" r="128.259"/>
<polygon style="fill:#FFFFFF;" points="255.999,103.709 191.869,143.79 191.869,248 231.95,248 231.95,183.871 280.047,183.871 
	280.047,248 320.128,248 320.128,143.79 "/>
<path d="M255.999,0C154.611,0,72.128,82.484,72.128,183.871c0,32.162,9.497,69.406,28.227,110.696
	c14.817,32.666,35.444,68.004,61.306,105.033c43.912,62.874,88.462,109.647,88.908,110.112c2.917,3.049,7.945,3.049,10.862,0
	c0.445-0.465,44.996-47.238,88.908-110.112c25.862-37.03,46.489-72.367,61.306-105.033c18.73-41.291,28.227-78.534,28.227-110.696
	C439.87,82.484,357.386,0,255.999,0z M338.134,390.824c-34.333,49.183-69.052,88.354-82.136,102.652
	c-13.083-14.298-47.802-53.468-82.136-102.652c-56.722-81.256-86.705-152.819-86.705-206.953
	c0-93.099,75.742-168.841,168.841-168.841s168.841,75.742,168.841,168.841C424.839,238.004,394.857,309.568,338.134,390.824z"/>
<path d="M346.708,82.841c-3.088-2.773-7.84-2.52-10.613,0.568c-2.775,3.087-2.52,7.839,0.567,10.612
	c25.472,22.884,40.081,55.633,40.081,89.848c0,66.578-54.165,120.744-120.744,120.744S135.255,250.448,135.255,183.87
	S189.42,63.127,255.999,63.127c18.692,0,36.607,4.153,53.249,12.343c3.723,1.834,8.228,0.3,10.061-3.424
	c1.833-3.724,0.3-8.229-3.425-10.061c-18.725-9.216-38.872-13.888-59.886-13.888c-74.866,0-135.774,60.908-135.774,135.774
	s60.908,135.774,135.774,135.774s135.774-60.908,135.774-135.774C391.773,145.396,375.347,108.572,346.708,82.841z"/>
<path d="M252.017,97.336l-64.129,40.081c-2.197,1.374-3.532,3.782-3.532,6.373V248c0,4.15,3.364,7.515,7.515,7.515h40.081
	c4.151,0,7.515-3.365,7.515-7.515v-56.614h33.067V248c0,4.15,3.364,7.515,7.515,7.515h40.081c4.151,0,7.515-3.365,7.515-7.515
	V143.79c0-2.591-1.335-4.999-3.532-6.373l-64.129-40.081C257.545,95.813,254.453,95.813,252.017,97.336z M312.613,240.485h-25.051
	v-56.614c0-4.15-3.364-7.515-7.515-7.515H231.95c-4.151,0-7.515,3.365-7.515,7.515v56.614h-25.051v-92.53l56.614-35.384
	l56.614,35.384V240.485z"/>
<g>
</g>
<g>
</g>
<g>
</g>
<g>
</g>
<g>
</g>
<g>
</g>
<g>
</g>
<g>
</g>
<g>
</g>
<g>
</g>
<g>
</g>
<g>
</g>
<g>
</g>
<g>
</g>
<g>
</g>
</svg>
